<svg width="40" height="40" viewBox="0 0 40 40" fill="none" xmlns="http://www.w3.org/2000/svg">
<rect width="40" height="40" rx="12" fill="#DF5C0C"/>
<g clip-path="url(#clip0_116_1723)">
<path fill-rule="evenodd" clip-rule="evenodd" d="M24.532 12.212L24.736 12.2376C25.2752 12.312 25.9888 12.412 26.3928 12.8168C26.724 13.1472 26.8512 13.6848 26.9272 14.1648L26.972 14.4736C27.0728 15.2016 27.0992 16.1552 26.9272 17.2144C26.588 19.3048 25.4752 21.7992 22.6808 23.7304C22.6656 23.8808 22.6648 24.0328 22.668 24.1848L22.676 24.412C22.6888 24.7616 22.7016 25.1104 22.604 25.4504C22.452 25.9784 21.9104 26.3264 21.404 26.576L21.156 26.6936L20.836 26.8344C20.2376 27.0888 19.4296 27.3496 18.9232 26.8424C18.6192 26.5392 18.4944 26.0944 18.3928 25.652L18.3552 25.4864C18.3129 25.2773 18.2595 25.0707 18.1952 24.8672C18.1552 24.7504 18.112 24.6312 18.0656 24.5112C18.0146 24.5739 17.9604 24.634 17.9032 24.6912C17.6272 24.9672 17.2152 25.16 16.876 25.2952C16.5056 25.4416 16.0864 25.5696 15.6984 25.6752L15.4992 25.728L15.1176 25.8232L14.772 25.9032L14.3584 25.9912L14.1 26.0416C13.9712 26.0655 13.8384 26.0576 13.7133 26.0188C13.5881 25.9799 13.4743 25.9111 13.3816 25.8185C13.2889 25.7258 13.2202 25.612 13.1813 25.4868C13.1424 25.3616 13.1346 25.2289 13.1584 25.1L13.2272 24.7552L13.3504 24.1968L13.4496 23.7888L13.5248 23.5008C13.6304 23.1136 13.7584 22.6944 13.9056 22.3248C14.04 21.9848 14.2328 21.5728 14.5088 21.2968L14.5728 21.2352L14.5216 21.2144C14.3849 21.1624 14.2464 21.1152 14.1064 21.0728L13.8848 21.0048C13.3296 20.8368 12.736 20.656 12.3672 20.2864C11.9192 19.8392 12.0704 19.1584 12.2864 18.592L12.3744 18.3728L12.516 18.0528L12.6336 17.8048C12.8832 17.2992 13.2312 16.7576 13.7592 16.6056C14.0392 16.5256 14.3304 16.5208 14.6232 16.5288L14.7992 16.5344C15.028 16.5424 15.256 16.5512 15.4792 16.5296C17.4104 13.7344 19.9048 12.6216 21.9952 12.2824C22.8338 12.1449 23.6871 12.1212 24.532 12.212ZM16.6824 22.352C16.5565 22.2588 16.4061 22.2046 16.2496 22.1961C16.0932 22.1876 15.9377 22.2251 15.8024 22.304L15.7144 22.3632L15.64 22.4296L15.54 22.556C15.332 22.8568 15.2136 23.2728 15.1216 23.6616L15.0352 24.036L14.9944 24.2064L15.1472 24.1696L15.4816 24.0928C15.944 23.9848 16.4568 23.8448 16.772 23.5608C16.9091 23.4238 16.9918 23.2418 17.0047 23.0485C17.0177 22.8551 16.96 22.6637 16.8424 22.5096L16.7768 22.4344L16.7576 22.416L16.6824 22.352ZM22.4288 16.7728C22.2803 16.6242 22.1039 16.5063 21.9098 16.4259C21.7157 16.3454 21.5076 16.304 21.2975 16.304C21.0874 16.3039 20.8793 16.3453 20.6852 16.4257C20.4911 16.506 20.3146 16.6239 20.166 16.7724C20.0174 16.921 19.8995 17.0973 19.8191 17.2915C19.7387 17.4856 19.6972 17.6936 19.6972 17.9037C19.6972 18.1139 19.7385 18.3219 19.8189 18.5161C19.8993 18.7102 20.0171 18.8866 20.1656 19.0352C20.4657 19.3353 20.8726 19.504 21.297 19.5041C21.7213 19.5041 22.1283 19.3356 22.4284 19.0356C22.7286 18.7356 22.8972 18.3287 22.8973 17.9043C22.8974 17.48 22.7289 17.0729 22.4288 16.7728Z" fill="white"/>
</g>
<defs>
<clipPath id="clip0_116_1723">
<rect width="19.2" height="19.2" fill="white" transform="translate(10 10)"/>
</clipPath>
</defs>
</svg>
