<svg width="40" height="40" viewBox="0 0 40 40" fill="none" xmlns="http://www.w3.org/2000/svg">
<rect width="40" height="40" rx="12" fill="#DF5C0C"/>
<path fill-rule="evenodd" clip-rule="evenodd" d="M19.9998 12C20.8726 12 21.6934 12.2336 22.3998 12.6432C22.4954 12.6932 22.5799 12.762 22.6482 12.8456C22.7165 12.9291 22.7672 13.0255 22.7973 13.1292C22.8274 13.2328 22.8362 13.3414 22.8231 13.4485C22.8101 13.5556 22.7756 13.659 22.7216 13.7524C22.6676 13.8458 22.5953 13.9274 22.509 13.9921C22.4226 14.0568 22.3241 14.1034 22.2193 14.1291C22.1145 14.1548 22.0056 14.159 21.8991 14.1415C21.7927 14.1239 21.6909 14.0851 21.5998 14.0272C21.1132 13.7463 20.5613 13.5984 19.9994 13.5985C19.4376 13.5985 18.8857 13.7465 18.3991 14.0276C17.9126 14.3086 17.5087 14.7128 17.228 15.1995C16.9472 15.6861 16.7995 16.2382 16.7998 16.8L25.5998 16.8008C26.0242 16.8008 26.4311 16.9694 26.7312 17.2694C27.0312 17.5695 27.1998 17.9765 27.1998 18.4008V26.4008C27.1998 26.8251 27.0312 27.2321 26.7312 27.5322C26.4311 27.8322 26.0242 28.0008 25.5998 28.0008H14.3998C13.9755 28.0008 13.5685 27.8322 13.2684 27.5322C12.9684 27.2321 12.7998 26.8251 12.7998 26.4008V18.4C12.7998 17.9757 12.9684 17.5687 13.2684 17.2686C13.5685 16.9686 13.9755 16.8 14.3998 16.8H15.1998C15.1998 15.527 15.7055 14.3061 16.6057 13.4059C17.5059 12.5057 18.7268 12 19.9998 12ZM19.9998 20C19.6476 20 19.3052 20.1162 19.0258 20.3307C18.7464 20.5451 18.5456 20.8457 18.4544 21.1859C18.3632 21.5261 18.3869 21.8869 18.5217 22.2123C18.6564 22.5376 18.8948 22.8095 19.1998 22.9856V24C19.1998 24.2122 19.2841 24.4157 19.4341 24.5657C19.5841 24.7157 19.7876 24.8 19.9998 24.8C20.212 24.8 20.4155 24.7157 20.5655 24.5657C20.7155 24.4157 20.7998 24.2122 20.7998 24V22.9856C21.1048 22.8095 21.3432 22.5376 21.478 22.2123C21.6127 21.8869 21.6364 21.5261 21.5452 21.1859C21.4541 20.8457 21.2532 20.5451 20.9738 20.3307C20.6944 20.1162 20.352 20 19.9998 20ZM26.3342 14.4168L27.107 14.6248C27.304 14.6865 27.4696 14.822 27.5691 15.0029C27.6685 15.1838 27.6942 15.3962 27.6407 15.5956C27.5871 15.7951 27.4586 15.9661 27.2819 16.0729C27.1052 16.1797 26.8941 16.2141 26.6926 16.1688L25.9206 15.9624C25.7165 15.9068 25.5428 15.7726 25.4374 15.5892C25.332 15.4058 25.3035 15.1881 25.3582 14.9838C25.4129 14.7794 25.5463 14.6051 25.7292 14.4988C25.9121 14.3926 26.1296 14.3631 26.3342 14.4168ZM25.3062 12.072C25.4077 12.0992 25.5028 12.1461 25.5862 12.2101C25.6695 12.2741 25.7395 12.3538 25.792 12.4448C25.8445 12.5358 25.8786 12.6363 25.8923 12.7405C25.906 12.8447 25.899 12.9505 25.8718 13.052L25.7686 13.4376C25.7418 13.5395 25.6952 13.6351 25.6314 13.719C25.5676 13.8028 25.4878 13.8732 25.3967 13.9262C25.3056 13.9791 25.2049 14.0135 25.1004 14.0274C24.996 14.0413 24.8898 14.0345 24.788 14.0072C24.6862 13.98 24.5908 13.9329 24.5073 13.8687C24.4238 13.8045 24.3537 13.7244 24.3012 13.633C24.2487 13.5417 24.2148 13.4408 24.2014 13.3363C24.1879 13.2318 24.1953 13.1257 24.223 13.024L24.327 12.6376C24.3819 12.4328 24.5159 12.2582 24.6995 12.1521C24.8832 12.0461 25.1014 12.0173 25.3062 12.072Z" fill="white"/>
</svg>
