<svg width="40" height="40" viewBox="0 0 40 40" fill="none" xmlns="http://www.w3.org/2000/svg">
<rect width="40" height="40" rx="12" fill="#DF5C0C"/>
<path d="M23.5999 13.2C23.3877 13.2 23.1842 13.1157 23.0342 12.9657C22.8842 12.8156 22.7999 12.6121 22.7999 12.4C22.7999 12.1878 22.8842 11.9843 23.0342 11.8343C23.1842 11.6843 23.3877 11.6 23.5999 11.6H26.7999C27.0121 11.6 27.2156 11.6843 27.3656 11.8343C27.5156 11.9843 27.5999 12.1878 27.5999 12.4V15.6C27.5999 15.8121 27.5156 16.0156 27.3656 16.1657C27.2156 16.3157 27.0121 16.4 26.7999 16.4C26.5877 16.4 26.3842 16.3157 26.2342 16.1657C26.0842 16.0156 25.9999 15.8121 25.9999 15.6V14.3312L21.3655 18.9656C21.2155 19.1156 21.012 19.1998 20.7999 19.1998C20.5878 19.1998 20.3843 19.1156 20.2343 18.9656L17.9999 16.7312L13.7655 20.9656C13.6146 21.1113 13.4125 21.1919 13.2028 21.1901C12.993 21.1883 12.7924 21.1042 12.644 20.9558C12.4957 20.8075 12.4116 20.6069 12.4098 20.3971C12.4079 20.1873 12.4886 19.9853 12.6343 19.8344L17.4343 15.0344C17.5843 14.8844 17.7878 14.8001 17.9999 14.8001C18.212 14.8001 18.4155 14.8844 18.5655 15.0344L20.7999 17.2688L24.8687 13.2H23.5999ZM13.9999 24.4V26.8C13.9999 27.0121 13.9156 27.2156 13.7656 27.3657C13.6156 27.5157 13.4121 27.6 13.1999 27.6C12.9877 27.6 12.7842 27.5157 12.6342 27.3657C12.4842 27.2156 12.3999 27.0121 12.3999 26.8V24.4C12.3999 24.1878 12.4842 23.9843 12.6342 23.8343C12.7842 23.6843 12.9877 23.6 13.1999 23.6C13.4121 23.6 13.6156 23.6843 13.7656 23.8343C13.9156 23.9843 13.9999 24.1878 13.9999 24.4ZM17.9999 21.2C17.9999 20.9878 17.9156 20.7843 17.7656 20.6343C17.6156 20.4843 17.4121 20.4 17.1999 20.4C16.9877 20.4 16.7842 20.4843 16.6342 20.6343C16.4842 20.7843 16.3999 20.9878 16.3999 21.2V26.8C16.3999 27.0121 16.4842 27.2156 16.6342 27.3657C16.7842 27.5157 16.9877 27.6 17.1999 27.6C17.4121 27.6 17.6156 27.5157 17.7656 27.3657C17.9156 27.2156 17.9999 27.0121 17.9999 26.8V21.2ZM21.1999 22C21.4121 22 21.6156 22.0843 21.7656 22.2343C21.9156 22.3843 21.9999 22.5878 21.9999 22.8V26.8C21.9999 27.0121 21.9156 27.2156 21.7656 27.3657C21.6156 27.5157 21.4121 27.6 21.1999 27.6C20.9877 27.6 20.7842 27.5157 20.6342 27.3657C20.4842 27.2156 20.3999 27.0121 20.3999 26.8V22.8C20.3999 22.5878 20.4842 22.3843 20.6342 22.2343C20.7842 22.0843 20.9877 22 21.1999 22ZM25.9999 18.8C25.9999 18.5878 25.9156 18.3843 25.7656 18.2343C25.6156 18.0843 25.4121 18 25.1999 18C24.9877 18 24.7842 18.0843 24.6342 18.2343C24.4842 18.3843 24.3999 18.5878 24.3999 18.8V26.8C24.3999 27.0121 24.4842 27.2156 24.6342 27.3657C24.7842 27.5157 24.9877 27.6 25.1999 27.6C25.4121 27.6 25.6156 27.5157 25.7656 27.3657C25.9156 27.2156 25.9999 27.0121 25.9999 26.8V18.8Z" fill="white"/>
</svg>
